# xmcd
#
# Track frame offsets: 
#        154
#        18290
#        38901
#        53677
#        70675
#        93511
#        104464
#        122356
#        137193
#        161401
#        181120
#        200411
#
# Disc length: 2883 seconds
#
# Revision: 3
# Processed by: cddbd v1.5.2PL0 Copyright (c) Steve Scherf et al.
# Submitted via: ExactAudioCopy v1.3
#
DISCID=960b410c
DTITLE=Chimaira - Crown Of Phantoms
DYEAR=2013
DGENRE=Metal
TTITLE0=The Machine
TTITLE1=No Mercy
TTITLE2=All That's Left Is Blood
TTITLE3=I Despise
TTITLE4=Plastic Wonderland
TTITLE5=The Transmigration
TTITLE6=Crown Of Phantoms
TTITLE7=Spineless
TTITLE8=Kings Of The Shadow World
TTITLE9=Wrapped In Violence
TTITLE10=Love Soaked Death
TTITLE11=New Apocalypse
EXTD=YEAR: 2013
EXTT0=
EXTT1=
EXTT2=
EXTT3=
EXTT4=
EXTT5=
EXTT6=
EXTT7=
EXTT8=
EXTT9=
EXTT10=
EXTT11=
PLAYORDER=
